<?xml version="1.0" encoding="UTF-8" standalone="no" ?>
<!DOCTYPE svg PUBLIC "-//W3C//DTD SVG 1.1//EN" "http://www.w3.org/Graphics/SVG/1.1/DTD/svg11.dtd">
<svg xmlns="http://www.w3.org/2000/svg" xmlns:xlink="http://www.w3.org/1999/xlink" version="1.1" width="1024" height="1024" viewBox="0 0 1024 1024" xml:space="preserve">
<desc>Created with Fabric.js 2.4.6</desc>
<defs>
</defs>
<rect x="0" y="0" width="100%" height="100%" fill="rgb(255, 255, 255)"></rect>
<g transform="matrix(1.561868754240066 0 0 1.9692307692307693 512 512)" id="background-logo"  >
<rect style="stroke: none; stroke-width: 1; stroke-dasharray: none; stroke-linecap: butt; stroke-dashoffset: 0; stroke-linejoin: miter; stroke-miterlimit: 4; fill: rgb(255,255,255); fill-rule: nonzero; opacity: 1;"  paint-order="stroke"  x="-325" y="-260" rx="0" ry="0" width="650" height="520" />
</g>
<g transform="matrix(1.5633356912157377 0 0 1.5623760191813585 512 404.23105595743544)" style="" id="logo-logo"  >
	<g transform="matrix(1.5 0 0 -1.5 134.12111460751157 25.71106588638881)" id="path14"  >
<path style="stroke: none; stroke-width: 1; stroke-dasharray: none; stroke-linecap: butt; stroke-dashoffset: 0; stroke-linejoin: miter; stroke-miterlimit: 4; fill: rgb(255,87,88); fill-rule: nonzero; opacity: 1;"  paint-order="stroke"  transform=" translate(8.720500000000001, -30.5245)" d="m 0 0 v 43.024 l -14.535 9.303 l -4.069 -3.11 v 5.436 l -14.537 9.303 l -9.883 -7.559 v -3.488 v -0.582 v -1.163 v -1.162 v -3.089 l 1.744 -1.883 v 6.134 v 1.163 v 0.582 v 2.325 l 8.139 6.396 V 36.891 l 8.722 -8.721 V 25.263 V 22.413 V 19.507 V 7.559 V 0 V -2.907 h 1.744 V 0 v 7.559 v 10.389 v 2.721 v 2.85 v 2.907 v 17.18 l 4.071 3.198 l 4.069 3.198 V 0 V -2.907 H 0 H 25.583 V 0 Z" stroke-linecap="round" />
</g>
	<g transform="matrix(1.5 0 0 -1.5 89.17638551861893 44.812575749168246)" id="path18"  >
<path style="stroke: none; stroke-width: 1; stroke-dasharray: none; stroke-linecap: butt; stroke-dashoffset: 0; stroke-linejoin: miter; stroke-miterlimit: 4; fill: rgb(255,87,88); fill-rule: nonzero; opacity: 1;"  paint-order="stroke"  transform=" translate(-2.0345, 17.893)" d="m 0 0 v -35.786 v -2.907 h 4.069 v 2.907 v 31.716 v 2.907 L 0 2.907 Z" stroke-linecap="round" />
</g>
	<g transform="matrix(1.5 0 0 -1.5 80.18743970084034 40.318102840278954)" id="path22"  >
<path style="stroke: none; stroke-width: 1; stroke-dasharray: none; stroke-linecap: butt; stroke-dashoffset: 0; stroke-linejoin: miter; stroke-miterlimit: 4; fill: rgb(255,87,88); fill-rule: nonzero; opacity: 1;"  paint-order="stroke"  transform=" translate(-2.0345, 23.707)" d="m 0 0 v -2.906 v -41.601 v -2.907 h 4.069 v 2.907 v 7.948 v 29.582 v 2.908 l -0.581 0.581 z" stroke-linecap="round" />
</g>
	<g transform="matrix(1.5 0 0 -1.5 72.32211211028414 35.82362993138966)" id="path26"  >
<path style="stroke: none; stroke-width: 1; stroke-dasharray: none; stroke-linecap: butt; stroke-dashoffset: 0; stroke-linejoin: miter; stroke-miterlimit: 4; fill: rgb(255,87,88); fill-rule: nonzero; opacity: 1;"  paint-order="stroke"  transform=" translate(-2.035, 23.707)" d="m 0 0 v -47.414 v -2.907 h 4.07 v 2.907 v 43.345 v 2.907 L 0 2.907 Z" stroke-linecap="round" />
</g>
	<g transform="matrix(1.5 0 0 -1.5 49.84974756583779 52.67790333972445)" id="path30"  >
<path style="stroke: none; stroke-width: 1; stroke-dasharray: none; stroke-linecap: butt; stroke-dashoffset: 0; stroke-linejoin: miter; stroke-miterlimit: 4; fill: rgb(255,87,88); fill-rule: nonzero; opacity: 1;"  paint-order="stroke"  transform=" translate(-6.6865, 15.698)" d="M 0 0 H -2.325 V -2.325 H 0 H 2.907 v -15.117 v -11.047 v -2.907 h 12.791 v 0.576 v 2.331 v 11.622 v 10.471 L 2.907 0 Z" stroke-linecap="round" />
</g>
	<g transform="matrix(1.5 0 0 -1.5 49.84974756583779 20.09297475027722)" id="path34"  >
<path style="stroke: none; stroke-width: 1; stroke-dasharray: none; stroke-linecap: butt; stroke-dashoffset: 0; stroke-linejoin: miter; stroke-miterlimit: 4; fill: rgb(255,87,88); fill-rule: nonzero; opacity: 1;"  paint-order="stroke"  transform=" translate(-6.6865, 8.55)" d="M 0 0 H -2.325 V -2.326 H 0 H 2.907 v -8.721 H 3.593 L 15.698 -17.1 V -6.396 L 2.907 0 Z" stroke-linecap="round" />
</g>
	<g transform="matrix(1.5 0 0 -1.5 49.84974756583779 -0.13215333972448207)" id="path38"  >
<path style="stroke: none; stroke-width: 1; stroke-dasharray: none; stroke-linecap: butt; stroke-dashoffset: 0; stroke-linejoin: miter; stroke-miterlimit: 4; fill: rgb(255,87,88); fill-rule: nonzero; opacity: 1;"  paint-order="stroke"  transform=" translate(-6.6865, 8.55)" d="M 0 0 H -2.325 V -2.326 H 0 H 2.907 v -8.721 H 3.593 L 15.698 -17.1 V -6.396 L 2.907 0 Z" stroke-linecap="round" />
</g>
	<g transform="matrix(1.5 0 0 -1.5 -61.388456929171696 45.93619397639051)" id="path42"  >
<path style="stroke: none; stroke-width: 1; stroke-dasharray: none; stroke-linecap: butt; stroke-dashoffset: 0; stroke-linejoin: miter; stroke-miterlimit: 4; fill: rgb(255,87,88); fill-rule: nonzero; opacity: 1;"  paint-order="stroke"  transform=" translate(-6.3955, 13.372499999999999)" d="m 0 0 v -10.471 v -13.954 v -5.808 v -2.908 h 2.907 h 9.884 v 2.908 v 5.232 v 13.954 V 4.07 V 6.396 L 2.907 1.454 Z" stroke-linecap="round" />
</g>
	<g transform="matrix(1.5 0 0 -1.5 -2.9603091136111743 -0.13215333972448207)" id="path46"  >
<path style="stroke: none; stroke-width: 1; stroke-dasharray: none; stroke-linecap: butt; stroke-dashoffset: 0; stroke-linejoin: miter; stroke-miterlimit: 4; fill: rgb(255,87,88); fill-rule: nonzero; opacity: 1;"  paint-order="stroke"  transform=" translate(31.978, 22.530500000000004)" d="M 0 0 H -8.14 V 2.81 L -30.234 -9.303 V 28.198 L -58.723 13.954 V 8.14 h -5.233 L -76.747 1.744 V -8.96 l 12.105 6.053 h 0.686 v 8.72 h 5.233 v -36.919 l 6.395 3.198 v -1.163 v -1.163 v -14.536 v -0.581 v -1.744 v -12.21 v -2.907 v -2.325 v -2.907 v -5.815 H -8.14 v 62.212 v 8.721 H 0 v -8.721 h 0.686 l 8.407 -4.204 l 3.698 -1.849 v 0.558 v 2.85 v 2.907 v 4.389 z" stroke-linecap="round" />
</g>
	<g transform="matrix(1.5 0 0 -1.5 -59.14122047472705 -12.491953839170009)" id="path50"  >
<path style="stroke: none; stroke-width: 1; stroke-dasharray: none; stroke-linecap: butt; stroke-dashoffset: 0; stroke-linejoin: miter; stroke-miterlimit: 4; fill: rgb(255,87,88); fill-rule: nonzero; opacity: 1;"  paint-order="stroke"  transform=" translate(-7.849, 2.154)" d="m 0 0 v -10.704 l 12.105 6.053 h 0.686 V 4.07 h 2.907 v 2.326 h -2.907 z" stroke-linecap="round" />
</g>
	<g transform="matrix(1.5 0 0 -1.5 -59.14122047472705 7.733174250831723)" id="path54"  >
<path style="stroke: none; stroke-width: 1; stroke-dasharray: none; stroke-linecap: butt; stroke-dashoffset: 0; stroke-linejoin: miter; stroke-miterlimit: 4; fill: rgb(255,87,88); fill-rule: nonzero; opacity: 1;"  paint-order="stroke"  transform=" translate(-7.849, 1.9589999999999996)" d="m 0 0 v -9.716 l 0.785 -0.598 l 11.32 5.663 h 0.686 V 4.07 h 2.907 v 2.326 h -2.907 z" stroke-linecap="round" />
</g>
	<g transform="matrix(1.5 0 0 -1.5 -90.60253083695196 44.812575749168246)" id="path58"  >
<path style="stroke: none; stroke-width: 1; stroke-dasharray: none; stroke-linecap: butt; stroke-dashoffset: 0; stroke-linejoin: miter; stroke-miterlimit: 4; fill: rgb(255,87,88); fill-rule: nonzero; opacity: 1;"  paint-order="stroke"  transform=" translate(-0.8719999999999999, 17.663500000000003)" d="M 0 0 L -1.745 -1.116 L -8.14 -5.209 L -9.884 -6.326 V -32.1 V -35.396 V -38.304 H 4.651 v 2.908 v 36.047 l 6.977 -5.482 v 1.465 v 1.006 L 4.651 2.977 Z" stroke-linecap="round" />
</g>
	<g transform="matrix(1.5 0 0 -1.5 -138.9181146075116 29.08192056805578)" id="path62"  >
<path style="stroke: none; stroke-width: 1; stroke-dasharray: none; stroke-linecap: butt; stroke-dashoffset: 0; stroke-linejoin: miter; stroke-miterlimit: 4; fill: rgb(255,87,88); fill-rule: nonzero; opacity: 1;"  paint-order="stroke"  transform=" translate(22.9655, 28.779999999999998)" d="m 0 0 l 6.396 -3.488 v -15.757 l 1.744 1.117 V -2.325 L 0 2.326 L -10.465 -4.651 v -4.855 l -4.07 3.11 l -14.536 -9.302 v -41.281 h -25 v -2.907 h 25 h 14.536 v 2.907 v 48.258 l 4.07 -3.198 l 4.069 -3.197 v -37.536 v -4.327 v -2.907 h 1.745 v 2.907 v 3.943 v 26.722 L 0 -23.338 Z" stroke-linecap="round" />
</g>
</g>
<g transform="matrix(1.561868754240066 0 0 1.561868754240066 512 621.3308127968046)"  >
<filter id="SVGID_58011" y="-20%" height="140%" x="-20%" width="140%" >
	<feGaussianBlur in="SourceAlpha" stdDeviation="0"></feGaussianBlur>
	<feOffset dx="0" dy="0" result="oBlur" ></feOffset>
	<feFlood flood-color="rgb(0,0,0)" flood-opacity="1"/>
	<feComposite in2="oBlur" operator="in" />
	<feMerge>
		<feMergeNode></feMergeNode>
		<feMergeNode in="SourceGraphic"></feMergeNode>
	</feMerge>
</filter>
<path style="stroke: none; stroke-width: 0; stroke-dasharray: none; stroke-linecap: butt; stroke-dashoffset: 0; stroke-linejoin: miter; stroke-miterlimit: 4; fill: rgb(255,87,88); fill-rule: nonzero; opacity: 1;filter: url(#SVGID_58011);"  paint-order="stroke"  transform=" translate(-319.53999999999996, 11.549999999999999)" d="M 8.17 0 L 2.59 0 L 2.59 -23.13 L 8.17 -23.13 L 8.17 -14.14 L 18.33 -14.14 L 18.33 -23.13 L 23.94 -23.13 L 23.94 0 L 18.33 0 L 18.33 -8.98 L 8.17 -8.98 L 8.17 0 Z M 46.82 0 L 29.1 0 L 29.1 -23.13 L 46.82 -23.13 L 46.82 -17.95 L 34.68 -17.95 L 34.68 -13.98 L 44.81 -13.98 L 44.81 -9.15 L 34.68 -9.15 L 34.68 -5.16 L 46.82 -5.16 L 46.82 0 Z M 56.91 0 L 51.33 0 L 51.33 -23.13 L 62.5 -23.13 Q 66.04 -23.13 68.39 -20.66 Q 70.74 -18.2 70.74 -14.44 L 70.74 -14.44 Q 70.74 -11.97 69.63 -9.98 Q 68.51 -7.99 66.62 -6.97 L 66.62 -6.97 L 71.39 0 L 64.45 0 L 60.98 -5.74 L 56.91 -5.74 L 56.91 0 Z M 56.91 -17.95 L 56.91 -10.91 L 61.69 -10.91 Q 63.12 -10.91 64.12 -11.94 Q 65.13 -12.98 65.13 -14.44 L 65.13 -14.44 Q 65.13 -15.87 64.13 -16.91 Q 63.14 -17.95 61.72 -17.95 L 61.72 -17.95 L 56.91 -17.95 Z M 80.93 0 L 75.35 0 L 75.35 -23.13 L 80.93 -23.13 L 80.93 0 Z M 92.92 -17.95 L 84.73 -17.95 L 84.73 -23.13 L 106.76 -23.13 L 106.76 -17.95 L 98.56 -17.95 L 98.56 0 L 92.92 0 L 92.92 -17.95 Z M 110.35 0 L 104.44 0 L 114.33 -23.13 L 120.54 -23.13 L 130.47 0 L 124.53 0 L 123.03 -3.6 L 111.88 -3.6 L 110.35 0 Z M 117.49 -16.8 L 113.82 -8.17 L 121.09 -8.17 L 117.49 -16.8 Z M 130.92 -11.55 L 130.92 -11.55 Q 130.92 -13.95 131.87 -16.14 Q 132.81 -18.33 134.46 -19.96 Q 136.1 -21.58 138.46 -22.55 Q 140.81 -23.52 143.47 -23.52 L 143.47 -23.52 Q 146.72 -23.52 149.38 -22.17 Q 152.04 -20.82 153.83 -18.46 L 153.83 -18.46 L 149.02 -16.02 Q 147.21 -18.29 143.4 -18.29 L 143.4 -18.29 Q 140.38 -18.29 138.46 -16.4 Q 136.53 -14.51 136.53 -11.62 L 136.53 -11.62 Q 136.53 -8.82 138.51 -6.81 Q 140.48 -4.8 143.47 -4.8 L 143.47 -4.8 Q 147.09 -4.8 149.15 -6.74 L 149.15 -6.74 L 149.15 -8.98 L 142.11 -8.98 L 142.11 -13.26 L 154.08 -13.26 L 154.08 -4.7 Q 154 -4.52 153.58 -4.03 Q 153.17 -3.55 152.23 -2.76 Q 151.29 -1.98 150.12 -1.29 Q 148.95 -0.6 147.18 -0.09 Q 145.41 0.42 143.5 0.42 L 143.5 0.42 Q 140.71 0.42 138.32 -0.58 Q 135.93 -1.58 134.33 -3.24 Q 132.73 -4.9 131.82 -7.06 Q 130.92 -9.21 130.92 -11.55 Z M 176.01 0 L 158.3 0 L 158.3 -23.13 L 176.01 -23.13 L 176.01 -17.95 L 163.87 -17.95 L 163.87 -13.98 L 174 -13.98 L 174 -9.15 L 163.87 -9.15 L 163.87 -5.16 L 176.01 -5.16 L 176.01 0 Z M 194.16 0 L 188.58 0 L 188.58 -23.13 L 194.16 -23.13 L 194.16 0 Z M 204.58 0 L 198.97 0 L 198.97 -23.13 L 204.58 -23.13 L 216.29 -9.01 L 216.29 -23.13 L 221.9 -23.13 L 221.9 0 L 216.29 0 L 204.58 -14.14 L 204.58 0 Z M 235.54 0 L 225.32 -23.13 L 231.46 -23.13 L 238.63 -6.59 L 245.79 -23.13 L 251.93 -23.13 L 241.67 0 L 235.54 0 Z M 273.34 0 L 255.63 0 L 255.63 -23.13 L 273.34 -23.13 L 273.34 -17.95 L 261.21 -17.95 L 261.21 -13.98 L 271.34 -13.98 L 271.34 -9.15 L 261.21 -9.15 L 261.21 -5.16 L 273.34 -5.16 L 273.34 0 Z M 276.8 -8.08 L 276.8 -8.08 L 282.34 -8.08 Q 282.36 -7.94 282.42 -7.69 Q 282.48 -7.44 282.8 -6.81 Q 283.12 -6.18 283.61 -5.69 Q 284.1 -5.21 285.1 -4.81 Q 286.09 -4.42 287.37 -4.42 L 287.37 -4.42 Q 289.1 -4.42 289.94 -5.02 Q 290.78 -5.63 290.78 -6.46 L 290.78 -6.46 Q 290.78 -6.89 290.54 -7.24 Q 290.29 -7.59 289.97 -7.82 Q 289.65 -8.05 289.03 -8.28 Q 288.42 -8.5 287.95 -8.62 Q 287.49 -8.75 286.69 -8.95 L 286.69 -8.95 Q 283.39 -9.73 281.83 -10.38 L 281.83 -10.38 Q 277.15 -12.32 277.15 -16.19 L 277.15 -16.19 Q 277.15 -18.26 278.4 -19.95 Q 279.65 -21.63 281.8 -22.58 Q 283.95 -23.52 286.56 -23.52 L 286.56 -23.52 Q 288.72 -23.52 290.52 -22.83 Q 292.32 -22.13 293.44 -21.01 Q 294.56 -19.89 295.17 -18.54 Q 295.77 -17.18 295.77 -15.8 L 295.77 -15.8 L 290.23 -15.8 Q 290.23 -16.78 289.19 -17.66 Q 288.15 -18.53 286.49 -18.53 L 286.49 -18.53 Q 285.12 -18.53 283.95 -17.95 Q 282.79 -17.38 282.79 -16.45 L 282.79 -16.45 Q 282.79 -15.67 283.8 -15.22 Q 284.8 -14.76 287.57 -14.04 L 287.57 -14.04 Q 290.73 -13.23 292.12 -12.6 L 292.12 -12.6 Q 295.91 -10.89 296.3 -7.62 L 296.3 -7.62 Q 296.35 -7.21 296.35 -6.77 L 296.35 -6.77 Q 296.35 -3.5 293.77 -1.54 Q 291.19 0.42 287.07 0.42 L 287.07 0.42 Q 284.98 0.42 283.23 -0.12 Q 281.48 -0.66 280.32 -1.54 Q 279.16 -2.41 278.34 -3.54 Q 277.53 -4.67 277.16 -5.82 Q 276.8 -6.97 276.8 -8.08 Z M 306.23 -17.95 L 298.05 -17.95 L 298.05 -23.13 L 320.08 -23.13 L 320.08 -17.95 L 311.88 -17.95 L 311.88 0 L 306.23 0 L 306.23 -17.95 Z M 329.46 0 L 323.88 0 L 323.88 -23.13 L 330.06 -23.13 L 338.12 -6.16 L 346.14 -23.13 L 352.37 -23.13 L 352.37 0 L 346.76 0 L 346.76 -11.8 L 341.21 0 L 334.99 0 L 329.46 -11.8 L 329.46 0 Z M 375.21 0 L 357.5 0 L 357.5 -23.13 L 375.21 -23.13 L 375.21 -17.95 L 363.08 -17.95 L 363.08 -13.98 L 373.2 -13.98 L 373.2 -9.15 L 363.08 -9.15 L 363.08 -5.16 L 375.21 -5.16 L 375.21 0 Z M 384.99 0 L 379.38 0 L 379.38 -23.13 L 384.99 -23.13 L 396.69 -9.01 L 396.69 -23.13 L 402.31 -23.13 L 402.31 0 L 396.69 0 L 384.99 -14.14 L 384.99 0 Z M 413.98 -17.95 L 405.79 -17.95 L 405.79 -23.13 L 427.82 -23.13 L 427.82 -17.95 L 419.62 -17.95 L 419.62 0 L 413.98 0 L 413.98 -17.95 Z M 438.55 -11.55 L 438.55 -11.55 Q 438.55 -13.95 439.49 -16.14 Q 440.44 -18.33 442.08 -19.96 Q 443.73 -21.58 446.08 -22.55 Q 448.44 -23.52 451.1 -23.52 L 451.1 -23.52 Q 454.35 -23.52 457.01 -22.17 Q 459.66 -20.82 461.46 -18.46 L 461.46 -18.46 L 456.64 -16.02 Q 454.83 -18.29 451.03 -18.29 L 451.03 -18.29 Q 448.01 -18.29 446.08 -16.4 Q 444.16 -14.51 444.16 -11.62 L 444.16 -11.62 Q 444.16 -8.82 446.13 -6.81 Q 448.11 -4.8 451.1 -4.8 L 451.1 -4.8 Q 454.72 -4.8 456.78 -6.74 L 456.78 -6.74 L 456.78 -8.98 L 449.74 -8.98 L 449.74 -13.26 L 461.71 -13.26 L 461.71 -4.7 Q 461.62 -4.52 461.21 -4.03 Q 460.79 -3.55 459.85 -2.76 Q 458.92 -1.98 457.75 -1.29 Q 456.58 -0.6 454.81 -0.09 Q 453.04 0.42 451.13 0.42 L 451.13 0.42 Q 448.34 0.42 445.95 -0.58 Q 443.56 -1.58 441.96 -3.24 Q 440.36 -4.9 439.45 -7.06 Q 438.55 -9.21 438.55 -11.55 Z M 471.5 0 L 465.92 0 L 465.92 -23.13 L 477.1 -23.13 Q 480.63 -23.13 482.98 -20.66 Q 485.33 -18.2 485.33 -14.44 L 485.33 -14.44 Q 485.33 -11.97 484.22 -9.98 Q 483.11 -7.99 481.21 -6.97 L 481.21 -6.97 L 485.98 0 L 479.04 0 L 475.57 -5.74 L 471.5 -5.74 L 471.5 0 Z M 471.5 -17.95 L 471.5 -10.91 L 476.28 -10.91 Q 477.71 -10.91 478.71 -11.94 Q 479.72 -12.98 479.72 -14.44 L 479.72 -14.44 Q 479.72 -15.87 478.72 -16.91 Q 477.73 -17.95 476.32 -17.95 L 476.32 -17.95 L 471.5 -17.95 Z M 487.77 -11.55 L 487.77 -11.55 Q 487.77 -13.98 488.71 -16.19 Q 489.65 -18.39 491.24 -20 Q 492.83 -21.62 495.04 -22.57 Q 497.25 -23.52 499.69 -23.52 L 499.69 -23.52 Q 502.1 -23.52 504.31 -22.57 Q 506.53 -21.62 508.12 -20 Q 509.72 -18.39 510.67 -16.18 Q 511.63 -13.96 511.63 -11.55 L 511.63 -11.55 Q 511.63 -9.13 510.68 -6.91 Q 509.73 -4.7 508.13 -3.1 Q 506.53 -1.49 504.31 -0.54 Q 502.1 0.42 499.69 0.42 L 499.69 0.42 Q 496.44 0.42 493.69 -1.2 Q 490.94 -2.81 489.36 -5.55 Q 487.77 -8.3 487.77 -11.55 Z M 492.87 -11.55 L 492.87 -11.55 Q 492.87 -8.73 494.87 -6.75 Q 496.87 -4.76 499.69 -4.76 L 499.69 -4.76 Q 502.48 -4.76 504.47 -6.75 Q 506.46 -8.73 506.46 -11.55 L 506.46 -11.55 Q 506.46 -14.34 504.47 -16.34 Q 502.48 -18.33 499.69 -18.33 L 499.69 -18.33 Q 496.87 -18.33 494.87 -16.34 Q 492.87 -14.36 492.87 -11.55 Z M 514.13 -11.87 L 514.13 -11.87 L 514.13 -23.13 L 519.71 -23.13 L 519.71 -11.87 Q 519.71 -8.5 521.12 -6.63 Q 522.53 -4.76 525.16 -4.76 L 525.16 -4.76 Q 527.76 -4.76 529.28 -6.66 Q 530.8 -8.55 530.8 -11.87 L 530.8 -11.87 L 530.8 -23.13 L 536.45 -23.13 L 536.45 -11.87 Q 536.45 -9.05 535.59 -6.72 Q 534.74 -4.4 533.23 -2.85 Q 531.71 -1.29 529.65 -0.44 Q 527.58 0.42 525.16 0.42 L 525.16 0.42 Q 520.18 0.42 517.16 -2.89 Q 514.13 -6.19 514.13 -11.87 Z M 545.88 0 L 540.26 0 L 540.26 -23.13 L 550.94 -23.13 Q 553.08 -23.13 554.79 -22.37 Q 556.5 -21.62 557.56 -20.35 Q 558.61 -19.08 559.17 -17.51 Q 559.72 -15.94 559.72 -14.21 L 559.72 -14.21 Q 559.72 -12.83 559.38 -11.53 Q 559.04 -10.23 558.32 -9.08 Q 557.6 -7.94 556.57 -7.08 Q 555.54 -6.23 554.09 -5.73 Q 552.63 -5.23 550.91 -5.23 L 550.91 -5.23 L 545.88 -5.23 L 545.88 0 Z M 545.88 -17.95 L 545.88 -10.38 L 550.31 -10.38 Q 552.04 -10.38 553.06 -11.37 Q 554.08 -12.37 554.08 -14.21 L 554.08 -14.21 Q 554.08 -16.02 553.06 -16.97 Q 552.05 -17.91 550.31 -17.95 L 550.31 -17.95 L 545.88 -17.95 Z M 589.77 0 L 572.06 0 L 572.06 -23.13 L 577.63 -23.13 L 577.63 -5.16 L 589.77 -5.16 L 589.77 0 Z M 611.45 0 L 593.74 0 L 593.74 -23.13 L 599.32 -23.13 L 599.32 -5.16 L 611.45 -5.16 L 611.45 0 Z M 613.1 -11.74 L 613.1 -11.74 Q 613.1 -14.13 614.04 -16.29 Q 614.99 -18.44 616.63 -20.04 Q 618.28 -21.63 620.62 -22.58 Q 622.96 -23.52 625.61 -23.52 L 625.61 -23.52 Q 629.23 -23.52 632.06 -21.97 Q 634.89 -20.42 636.49 -17.75 L 636.49 -17.75 L 631.76 -14.99 Q 630.91 -16.62 629.33 -17.56 Q 627.75 -18.49 625.61 -18.49 L 625.61 -18.49 Q 622.61 -18.49 620.67 -16.56 Q 618.74 -14.63 618.74 -11.74 L 618.74 -11.74 Q 618.74 -9.91 619.6 -8.33 Q 620.47 -6.76 622.05 -5.79 Q 623.64 -4.83 625.61 -4.83 L 625.61 -4.83 Q 627.67 -4.83 629.24 -5.78 Q 630.81 -6.72 631.69 -8.33 L 631.69 -8.33 L 636.42 -5.61 Q 634.79 -2.89 631.97 -1.24 Q 629.15 0.42 625.61 0.42 L 625.61 0.42 Q 622.94 0.42 620.61 -0.53 Q 618.28 -1.48 616.63 -3.1 Q 614.99 -4.71 614.04 -6.96 Q 613.1 -9.2 613.1 -11.74 Z" stroke-linecap="round" />
</g>
<g transform="matrix(1.561868754240066 0 0 1.561868754240066 512 707.2335942800082)"  >
<filter id="SVGID_58012" y="-40%" height="180%" x="-40%" width="180%" >
	<feGaussianBlur in="SourceAlpha" stdDeviation="0"></feGaussianBlur>
	<feOffset dx="0" dy="0" result="oBlur" ></feOffset>
	<feFlood flood-color="rgb(0,0,0)" flood-opacity="1"/>
	<feComposite in2="oBlur" operator="in" />
	<feMerge>
		<feMergeNode></feMergeNode>
		<feMergeNode in="SourceGraphic"></feMergeNode>
	</feMerge>
</filter>
<path style="stroke: none; stroke-width: 0; stroke-dasharray: none; stroke-linecap: butt; stroke-dashoffset: 0; stroke-linejoin: miter; stroke-miterlimit: 4; fill: rgb(0,113,188); fill-rule: nonzero; opacity: 1;filter: url(#SVGID_58012);"  paint-order="stroke"  transform=" translate(0, 0)" d="" stroke-linecap="round" />
</g>
</svg>